<mxfile host="Electron" modified="2023-09-26T01:22:16.311Z" agent="Mozilla/5.0 (Macintosh; Intel Mac OS X 10_15_7) AppleWebKit/537.36 (KHTML, like Gecko) draw.io/21.6.8 Chrome/114.0.5735.289 Electron/25.5.0 Safari/537.36" etag="QzJWIjxqX88RoNQDy6JK" version="21.6.8" type="device">
  <diagram id="R2lEEEUBdFMjLlhIrx00" name="Page-1">
    <mxGraphModel dx="987" dy="1022" grid="1" gridSize="10" guides="1" tooltips="1" connect="1" arrows="1" fold="1" page="1" pageScale="1" pageWidth="1600" pageHeight="900" math="0" shadow="0" extFonts="Permanent Marker^https://fonts.googleapis.com/css?family=Permanent+Marker">
      <root>
        <mxCell id="0" />
        <mxCell id="1" parent="0" />
        <mxCell id="C-vyLk0tnHw3VtMMgP7b-23" value="USERS" style="shape=table;startSize=90;container=1;collapsible=1;childLayout=tableLayout;fixedRows=1;rowLines=0;fontStyle=1;align=center;resizeLast=1;" parent="1" vertex="1">
          <mxGeometry x="570" y="110" width="210" height="90" as="geometry">
            <mxRectangle x="40" y="120" width="100" height="30" as="alternateBounds" />
          </mxGeometry>
        </mxCell>
        <mxCell id="C-vyLk0tnHw3VtMMgP7b-24" value="" style="shape=partialRectangle;collapsible=0;dropTarget=0;pointerEvents=0;fillColor=none;points=[[0,0.5],[1,0.5]];portConstraint=eastwest;top=0;left=0;right=0;bottom=1;" parent="C-vyLk0tnHw3VtMMgP7b-23" vertex="1" visible="0">
          <mxGeometry y="30" width="250" height="30" as="geometry" />
        </mxCell>
        <mxCell id="C-vyLk0tnHw3VtMMgP7b-25" value="" style="shape=partialRectangle;overflow=hidden;connectable=0;fillColor=none;top=0;left=0;bottom=0;right=0;fontStyle=1;" parent="C-vyLk0tnHw3VtMMgP7b-24" vertex="1">
          <mxGeometry width="30" height="30" as="geometry">
            <mxRectangle width="30" height="30" as="alternateBounds" />
          </mxGeometry>
        </mxCell>
        <mxCell id="C-vyLk0tnHw3VtMMgP7b-26" value="" style="shape=partialRectangle;overflow=hidden;connectable=0;fillColor=none;top=0;left=0;bottom=0;right=0;align=left;spacingLeft=6;fontStyle=5;" parent="C-vyLk0tnHw3VtMMgP7b-24" vertex="1">
          <mxGeometry x="30" width="220" height="30" as="geometry">
            <mxRectangle width="220" height="30" as="alternateBounds" />
          </mxGeometry>
        </mxCell>
        <mxCell id="C-vyLk0tnHw3VtMMgP7b-27" value="" style="shape=partialRectangle;collapsible=0;dropTarget=0;pointerEvents=0;fillColor=none;points=[[0,0.5],[1,0.5]];portConstraint=eastwest;top=0;left=0;right=0;bottom=0;" parent="C-vyLk0tnHw3VtMMgP7b-23" vertex="1" visible="0">
          <mxGeometry y="60" width="250" height="30" as="geometry" />
        </mxCell>
        <mxCell id="C-vyLk0tnHw3VtMMgP7b-28" value="" style="shape=partialRectangle;overflow=hidden;connectable=0;fillColor=none;top=0;left=0;bottom=0;right=0;" parent="C-vyLk0tnHw3VtMMgP7b-27" vertex="1">
          <mxGeometry width="30" height="30" as="geometry">
            <mxRectangle width="30" height="30" as="alternateBounds" />
          </mxGeometry>
        </mxCell>
        <mxCell id="C-vyLk0tnHw3VtMMgP7b-29" value="" style="shape=partialRectangle;overflow=hidden;connectable=0;fillColor=none;top=0;left=0;bottom=0;right=0;align=left;spacingLeft=6;" parent="C-vyLk0tnHw3VtMMgP7b-27" vertex="1">
          <mxGeometry x="30" width="220" height="30" as="geometry">
            <mxRectangle width="220" height="30" as="alternateBounds" />
          </mxGeometry>
        </mxCell>
        <mxCell id="j3X8hz9PBBt_-AGuVb1o-19" value="" style="endArrow=none;html=1;rounded=0;exitX=0.033;exitY=0;exitDx=0;exitDy=0;entryX=0.638;entryY=1.088;entryDx=0;entryDy=0;exitPerimeter=0;entryPerimeter=0;" parent="1" source="C-vyLk0tnHw3VtMMgP7b-23" target="j3X8hz9PBBt_-AGuVb1o-34" edge="1">
          <mxGeometry width="50" height="50" relative="1" as="geometry">
            <mxPoint x="40" y="160" as="sourcePoint" />
            <mxPoint x="250" y="65" as="targetPoint" />
          </mxGeometry>
        </mxCell>
        <mxCell id="j3X8hz9PBBt_-AGuVb1o-22" value="" style="endArrow=none;html=1;rounded=0;entryX=0.638;entryY=1.075;entryDx=0;entryDy=0;exitX=0.25;exitY=0;exitDx=0;exitDy=0;entryPerimeter=0;" parent="1" source="C-vyLk0tnHw3VtMMgP7b-23" target="j3X8hz9PBBt_-AGuVb1o-33" edge="1">
          <mxGeometry width="50" height="50" relative="1" as="geometry">
            <mxPoint x="340" y="120" as="sourcePoint" />
            <mxPoint x="335" y="70" as="targetPoint" />
          </mxGeometry>
        </mxCell>
        <mxCell id="j3X8hz9PBBt_-AGuVb1o-23" value="" style="endArrow=none;html=1;rounded=0;entryX=0.5;entryY=1;entryDx=0;entryDy=0;exitX=0.619;exitY=0;exitDx=0;exitDy=0;exitPerimeter=0;" parent="1" source="C-vyLk0tnHw3VtMMgP7b-23" target="j3X8hz9PBBt_-AGuVb1o-35" edge="1">
          <mxGeometry width="50" height="50" relative="1" as="geometry">
            <mxPoint x="190" y="190" as="sourcePoint" />
            <mxPoint x="405.20000000000005" y="66.45000000000005" as="targetPoint" />
          </mxGeometry>
        </mxCell>
        <mxCell id="j3X8hz9PBBt_-AGuVb1o-26" value="" style="endArrow=none;html=1;rounded=0;entryX=0.357;entryY=1.038;entryDx=0;entryDy=0;exitX=0.64;exitY=-0.037;exitDx=0;exitDy=0;exitPerimeter=0;entryPerimeter=0;" parent="1" source="C-vyLk0tnHw3VtMMgP7b-23" target="j3X8hz9PBBt_-AGuVb1o-36" edge="1">
          <mxGeometry width="50" height="50" relative="1" as="geometry">
            <mxPoint x="509.82000000000016" y="121.84999999999997" as="sourcePoint" />
            <mxPoint x="490.001262658471" y="62.497669529663604" as="targetPoint" />
          </mxGeometry>
        </mxCell>
        <mxCell id="j3X8hz9PBBt_-AGuVb1o-28" value="" style="endArrow=none;html=1;rounded=0;entryX=0;entryY=1;entryDx=0;entryDy=0;exitX=0.905;exitY=-0.033;exitDx=0;exitDy=0;exitPerimeter=0;" parent="1" source="C-vyLk0tnHw3VtMMgP7b-23" target="j3X8hz9PBBt_-AGuVb1o-37" edge="1">
          <mxGeometry width="50" height="50" relative="1" as="geometry">
            <mxPoint x="480" y="120" as="sourcePoint" />
            <mxPoint x="551.4574411852586" y="61.766227199950436" as="targetPoint" />
          </mxGeometry>
        </mxCell>
        <mxCell id="j3X8hz9PBBt_-AGuVb1o-33" value="Name" style="ellipse;whiteSpace=wrap;html=1;align=center;" parent="1" vertex="1">
          <mxGeometry x="520" y="10" width="80" height="40" as="geometry" />
        </mxCell>
        <mxCell id="j3X8hz9PBBt_-AGuVb1o-34" value="Userid" style="ellipse;whiteSpace=wrap;html=1;align=center;fontStyle=4;" parent="1" vertex="1">
          <mxGeometry x="420" y="10" width="80" height="40" as="geometry" />
        </mxCell>
        <mxCell id="j3X8hz9PBBt_-AGuVb1o-35" value="email" style="ellipse;whiteSpace=wrap;html=1;align=center;" parent="1" vertex="1">
          <mxGeometry x="615" y="10" width="70" height="40" as="geometry" />
        </mxCell>
        <mxCell id="j3X8hz9PBBt_-AGuVb1o-36" value="Location" style="ellipse;whiteSpace=wrap;html=1;align=center;" parent="1" vertex="1">
          <mxGeometry x="710" y="10" width="70" height="40" as="geometry" />
        </mxCell>
        <mxCell id="j3X8hz9PBBt_-AGuVb1o-37" value="Time Zone" style="ellipse;whiteSpace=wrap;html=1;align=center;" parent="1" vertex="1">
          <mxGeometry x="820" y="22.5" width="90" height="40" as="geometry" />
        </mxCell>
        <mxCell id="j3X8hz9PBBt_-AGuVb1o-48" value="" style="endArrow=none;html=1;rounded=0;exitX=0.5;exitY=0;exitDx=0;exitDy=0;entryX=-0.052;entryY=0.095;entryDx=0;entryDy=0;entryPerimeter=0;" parent="1" source="mCOdfryTDlTn8JmJhLNw-13" target="mCOdfryTDlTn8JmJhLNw-12" edge="1">
          <mxGeometry relative="1" as="geometry">
            <mxPoint x="215" y="400" as="sourcePoint" />
            <mxPoint x="364.96000000000004" y="318" as="targetPoint" />
          </mxGeometry>
        </mxCell>
        <mxCell id="j3X8hz9PBBt_-AGuVb1o-49" value="Credit card No." style="ellipse;whiteSpace=wrap;html=1;align=center;" parent="1" vertex="1">
          <mxGeometry x="520" y="570" width="100" height="40" as="geometry" />
        </mxCell>
        <mxCell id="j3X8hz9PBBt_-AGuVb1o-51" value="" style="endArrow=none;html=1;rounded=0;entryX=0.182;entryY=1.033;entryDx=0;entryDy=0;entryPerimeter=0;exitX=0.5;exitY=0;exitDx=0;exitDy=0;" parent="1" source="j3X8hz9PBBt_-AGuVb1o-49" target="mCOdfryTDlTn8JmJhLNw-13" edge="1">
          <mxGeometry relative="1" as="geometry">
            <mxPoint x="190" y="520" as="sourcePoint" />
            <mxPoint x="182.5" y="400" as="targetPoint" />
          </mxGeometry>
        </mxCell>
        <mxCell id="j3X8hz9PBBt_-AGuVb1o-53" value="" style="endArrow=none;html=1;rounded=0;exitX=-0.017;exitY=0.613;exitDx=0;exitDy=0;entryX=0.5;entryY=0;entryDx=0;entryDy=0;exitPerimeter=0;" parent="1" source="mCOdfryTDlTn8JmJhLNw-12" target="mCOdfryTDlTn8JmJhLNw-14" edge="1">
          <mxGeometry relative="1" as="geometry">
            <mxPoint x="380" y="330" as="sourcePoint" />
            <mxPoint x="420" y="390" as="targetPoint" />
          </mxGeometry>
        </mxCell>
        <mxCell id="j3X8hz9PBBt_-AGuVb1o-64" value="" style="endArrow=classic;html=1;rounded=0;exitX=0;exitY=0.5;exitDx=0;exitDy=0;entryX=0.829;entryY=1;entryDx=0;entryDy=0;entryPerimeter=0;" parent="1" source="LIS-N79Wm2LR9AGl1RFl-45" target="C-vyLk0tnHw3VtMMgP7b-23" edge="1">
          <mxGeometry width="50" height="50" relative="1" as="geometry">
            <mxPoint x="570" y="230" as="sourcePoint" />
            <mxPoint x="450" y="320" as="targetPoint" />
          </mxGeometry>
        </mxCell>
        <mxCell id="j3X8hz9PBBt_-AGuVb1o-67" value="" style="endArrow=none;html=1;rounded=0;exitX=0;exitY=0;exitDx=0;exitDy=0;entryX=1;entryY=0.5;entryDx=0;entryDy=0;" parent="1" source="LIS-N79Wm2LR9AGl1RFl-44" target="LIS-N79Wm2LR9AGl1RFl-35" edge="1">
          <mxGeometry relative="1" as="geometry">
            <mxPoint x="800" y="290" as="sourcePoint" />
            <mxPoint x="696" y="237.98000000000002" as="targetPoint" />
          </mxGeometry>
        </mxCell>
        <mxCell id="mCOdfryTDlTn8JmJhLNw-2" value="" style="endArrow=none;html=1;rounded=0;entryX=0;entryY=0.5;entryDx=0;entryDy=0;exitX=0.116;exitY=0.988;exitDx=0;exitDy=0;exitPerimeter=0;" parent="1" source="mCOdfryTDlTn8JmJhLNw-12" target="mCOdfryTDlTn8JmJhLNw-16" edge="1">
          <mxGeometry width="50" height="50" relative="1" as="geometry">
            <mxPoint x="415" y="315" as="sourcePoint" />
            <mxPoint x="678.04" y="395.02" as="targetPoint" />
          </mxGeometry>
        </mxCell>
        <mxCell id="mCOdfryTDlTn8JmJhLNw-5" value="Tweets" style="rounded=0;whiteSpace=wrap;html=1;strokeWidth=4;" parent="1" vertex="1">
          <mxGeometry x="50" y="275" width="120" height="70" as="geometry" />
        </mxCell>
        <mxCell id="mCOdfryTDlTn8JmJhLNw-12" value="ISA&lt;br&gt;" style="triangle;whiteSpace=wrap;html=1;rotation=-90;horizontal=1;verticalAlign=middle;" parent="1" vertex="1">
          <mxGeometry x="690" y="250" width="70" height="140" as="geometry" />
        </mxCell>
        <mxCell id="mCOdfryTDlTn8JmJhLNw-13" value="Blue Users" style="whiteSpace=wrap;html=1;align=center;" parent="1" vertex="1">
          <mxGeometry x="540" y="450" width="110" height="60" as="geometry" />
        </mxCell>
        <mxCell id="mCOdfryTDlTn8JmJhLNw-14" value="Grey Users" style="whiteSpace=wrap;html=1;align=center;" parent="1" vertex="1">
          <mxGeometry x="685" y="420" width="135" height="60" as="geometry" />
        </mxCell>
        <mxCell id="mCOdfryTDlTn8JmJhLNw-15" value="Bots" style="whiteSpace=wrap;html=1;align=center;strokeWidth=1;" parent="1" vertex="1">
          <mxGeometry x="920" y="450" width="130" height="60" as="geometry" />
        </mxCell>
        <mxCell id="mCOdfryTDlTn8JmJhLNw-16" value="No Label" style="whiteSpace=wrap;html=1;align=center;" parent="1" vertex="1">
          <mxGeometry x="920" y="360" width="120" height="60" as="geometry" />
        </mxCell>
        <mxCell id="mCOdfryTDlTn8JmJhLNw-22" value="" style="endArrow=none;html=1;rounded=0;entryX=0.471;entryY=1.033;entryDx=0;entryDy=0;entryPerimeter=0;exitX=1;exitY=0.5;exitDx=0;exitDy=0;" parent="1" source="mCOdfryTDlTn8JmJhLNw-12" target="C-vyLk0tnHw3VtMMgP7b-23" edge="1">
          <mxGeometry width="50" height="50" relative="1" as="geometry">
            <mxPoint x="490" y="290" as="sourcePoint" />
            <mxPoint x="540" y="240" as="targetPoint" />
          </mxGeometry>
        </mxCell>
        <mxCell id="mCOdfryTDlTn8JmJhLNw-25" value="" style="endArrow=none;html=1;rounded=0;exitX=1;exitY=0.5;exitDx=0;exitDy=0;entryX=0.5;entryY=0;entryDx=0;entryDy=0;" parent="1" source="LIS-N79Wm2LR9AGl1RFl-58" target="LIS-N79Wm2LR9AGl1RFl-23" edge="1">
          <mxGeometry width="50" height="50" relative="1" as="geometry">
            <mxPoint x="80" y="42.5" as="sourcePoint" />
            <mxPoint x="220" y="90" as="targetPoint" />
          </mxGeometry>
        </mxCell>
        <mxCell id="mCOdfryTDlTn8JmJhLNw-31" value="" style="endArrow=none;html=1;rounded=0;exitX=0.62;exitY=0.925;exitDx=0;exitDy=0;exitPerimeter=0;entryX=0.5;entryY=0;entryDx=0;entryDy=0;" parent="1" source="mCOdfryTDlTn8JmJhLNw-32" target="LIS-N79Wm2LR9AGl1RFl-23" edge="1">
          <mxGeometry width="50" height="50" relative="1" as="geometry">
            <mxPoint x="80" y="70" as="sourcePoint" />
            <mxPoint x="220" y="90" as="targetPoint" />
          </mxGeometry>
        </mxCell>
        <mxCell id="mCOdfryTDlTn8JmJhLNw-32" value="Start date" style="ellipse;whiteSpace=wrap;html=1;align=center;" parent="1" vertex="1">
          <mxGeometry x="230" y="20" width="100" height="40" as="geometry" />
        </mxCell>
        <mxCell id="mCOdfryTDlTn8JmJhLNw-36" value="Text" style="ellipse;whiteSpace=wrap;html=1;align=center;" parent="1" vertex="1">
          <mxGeometry x="30" y="160" width="100" height="40" as="geometry" />
        </mxCell>
        <mxCell id="mCOdfryTDlTn8JmJhLNw-38" value="" style="endArrow=none;html=1;rounded=0;entryX=0.417;entryY=0.071;entryDx=0;entryDy=0;entryPerimeter=0;exitX=1;exitY=1;exitDx=0;exitDy=0;" parent="1" source="mCOdfryTDlTn8JmJhLNw-36" target="mCOdfryTDlTn8JmJhLNw-5" edge="1">
          <mxGeometry width="50" height="50" relative="1" as="geometry">
            <mxPoint x="100" y="310" as="sourcePoint" />
            <mxPoint x="150" y="260" as="targetPoint" />
          </mxGeometry>
        </mxCell>
        <mxCell id="mCOdfryTDlTn8JmJhLNw-41" value="" style="endArrow=none;html=1;rounded=0;exitX=0.98;exitY=0.675;exitDx=0;exitDy=0;entryX=0.75;entryY=0;entryDx=0;entryDy=0;exitPerimeter=0;" parent="1" target="mCOdfryTDlTn8JmJhLNw-5" edge="1">
          <mxGeometry width="50" height="50" relative="1" as="geometry">
            <mxPoint x="157.99999999999977" y="142" as="sourcePoint" />
            <mxPoint x="160" y="245" as="targetPoint" />
          </mxGeometry>
        </mxCell>
        <mxCell id="mCOdfryTDlTn8JmJhLNw-45" value="" style="endArrow=none;html=1;rounded=0;exitX=0;exitY=0.5;exitDx=0;exitDy=0;strokeWidth=1;entryX=1;entryY=0.75;entryDx=0;entryDy=0;" parent="1" source="LIS-N79Wm2LR9AGl1RFl-31" target="mCOdfryTDlTn8JmJhLNw-5" edge="1">
          <mxGeometry width="50" height="50" relative="1" as="geometry">
            <mxPoint x="92.52999999999997" y="275" as="sourcePoint" />
            <mxPoint x="80.00047434656335" y="311.98" as="targetPoint" />
          </mxGeometry>
        </mxCell>
        <mxCell id="mCOdfryTDlTn8JmJhLNw-53" value="Date" style="ellipse;whiteSpace=wrap;html=1;align=center;" parent="1" vertex="1">
          <mxGeometry x="390" y="390" width="100" height="40" as="geometry" />
        </mxCell>
        <mxCell id="mCOdfryTDlTn8JmJhLNw-58" value="" style="endArrow=none;html=1;rounded=0;entryX=0.5;entryY=1;entryDx=0;entryDy=0;exitX=1;exitY=0;exitDx=0;exitDy=0;" parent="1" source="QwMvrHdCOfPr3-RVvYp1-4" target="LIS-N79Wm2LR9AGl1RFl-13" edge="1">
          <mxGeometry width="50" height="50" relative="1" as="geometry">
            <mxPoint x="821" y="70" as="sourcePoint" />
            <mxPoint x="130" y="370" as="targetPoint" />
          </mxGeometry>
        </mxCell>
        <mxCell id="mCOdfryTDlTn8JmJhLNw-64" value="Short Text" style="ellipse;whiteSpace=wrap;html=1;align=center;fontStyle=4;" parent="1" vertex="1">
          <mxGeometry x="300" y="680" width="100" height="40" as="geometry" />
        </mxCell>
        <mxCell id="mCOdfryTDlTn8JmJhLNw-66" value="Long Text" style="ellipse;whiteSpace=wrap;html=1;align=center;" parent="1" vertex="1">
          <mxGeometry x="180" y="700" width="100" height="40" as="geometry" />
        </mxCell>
        <mxCell id="mCOdfryTDlTn8JmJhLNw-67" value="" style="endArrow=none;html=1;rounded=0;exitX=0;exitY=1;exitDx=0;exitDy=0;entryX=0.5;entryY=0;entryDx=0;entryDy=0;" parent="1" source="LIS-N79Wm2LR9AGl1RFl-12" target="mCOdfryTDlTn8JmJhLNw-66" edge="1">
          <mxGeometry width="50" height="50" relative="1" as="geometry">
            <mxPoint x="198.19999999999982" y="412.02" as="sourcePoint" />
            <mxPoint x="910" y="240" as="targetPoint" />
          </mxGeometry>
        </mxCell>
        <mxCell id="mCOdfryTDlTn8JmJhLNw-71" value="" style="endArrow=none;html=1;rounded=0;exitX=0.668;exitY=1.067;exitDx=0;exitDy=0;exitPerimeter=0;" parent="1" source="mCOdfryTDlTn8JmJhLNw-14" target="mCOdfryTDlTn8JmJhLNw-72" edge="1">
          <mxGeometry width="50" height="50" relative="1" as="geometry">
            <mxPoint x="560" y="560" as="sourcePoint" />
            <mxPoint x="740" y="150" as="targetPoint" />
          </mxGeometry>
        </mxCell>
        <mxCell id="mCOdfryTDlTn8JmJhLNw-72" value="Organisation_name" style="ellipse;whiteSpace=wrap;html=1;align=center;" parent="1" vertex="1">
          <mxGeometry x="770" y="570" width="120" height="50" as="geometry" />
        </mxCell>
        <mxCell id="mCOdfryTDlTn8JmJhLNw-73" value="" style="endArrow=none;html=1;rounded=0;entryX=0;entryY=0.5;entryDx=0;entryDy=0;exitX=1;exitY=0.5;exitDx=0;exitDy=0;strokeWidth=4;" parent="1" source="mCOdfryTDlTn8JmJhLNw-5" target="QwMvrHdCOfPr3-RVvYp1-2" edge="1">
          <mxGeometry width="50" height="50" relative="1" as="geometry">
            <mxPoint x="430" y="430" as="sourcePoint" />
            <mxPoint x="150" y="180" as="targetPoint" />
          </mxGeometry>
        </mxCell>
        <mxCell id="QwMvrHdCOfPr3-RVvYp1-2" value="Write" style="shape=rhombus;perimeter=rhombusPerimeter;whiteSpace=wrap;html=1;align=center;strokeWidth=4;" parent="1" vertex="1">
          <mxGeometry x="290" y="150" width="120" height="60" as="geometry" />
        </mxCell>
        <mxCell id="QwMvrHdCOfPr3-RVvYp1-4" value="Term" style="ellipse;whiteSpace=wrap;html=1;align=center;fontStyle=4;" parent="1" vertex="1">
          <mxGeometry x="100" y="600" width="100" height="40" as="geometry" />
        </mxCell>
        <mxCell id="LIS-N79Wm2LR9AGl1RFl-8" value="" style="endArrow=none;html=1;rounded=0;entryX=0.5;entryY=1;entryDx=0;entryDy=0;exitX=0.357;exitY=-0.091;exitDx=0;exitDy=0;strokeWidth=1;exitPerimeter=0;" parent="1" source="LIS-N79Wm2LR9AGl1RFl-12" target="LIS-N79Wm2LR9AGl1RFl-11" edge="1">
          <mxGeometry width="50" height="50" relative="1" as="geometry">
            <mxPoint x="260" y="360" as="sourcePoint" />
            <mxPoint x="270" y="310" as="targetPoint" />
          </mxGeometry>
        </mxCell>
        <mxCell id="LIS-N79Wm2LR9AGl1RFl-9" value="" style="endArrow=none;html=1;rounded=0;entryX=0;entryY=0.5;entryDx=0;entryDy=0;exitX=1;exitY=0.5;exitDx=0;exitDy=0;strokeWidth=1;" parent="1" source="LIS-N79Wm2LR9AGl1RFl-31" target="C-vyLk0tnHw3VtMMgP7b-23" edge="1">
          <mxGeometry width="50" height="50" relative="1" as="geometry">
            <mxPoint x="269.9999999999998" y="259.28" as="sourcePoint" />
            <mxPoint x="298.7199999999998" y="240" as="targetPoint" />
          </mxGeometry>
        </mxCell>
        <mxCell id="LIS-N79Wm2LR9AGl1RFl-11" value="Mention" style="shape=rhombus;perimeter=rhombusPerimeter;whiteSpace=wrap;html=1;align=center;strokeWidth=1;" parent="1" vertex="1">
          <mxGeometry x="240" y="410" width="120" height="80" as="geometry" />
        </mxCell>
        <mxCell id="LIS-N79Wm2LR9AGl1RFl-13" value="Hashtag" style="whiteSpace=wrap;html=1;align=center;strokeWidth=4;" parent="1" vertex="1">
          <mxGeometry x="100" y="470" width="120" height="50" as="geometry" />
        </mxCell>
        <mxCell id="LIS-N79Wm2LR9AGl1RFl-17" value="" style="endArrow=none;html=1;rounded=0;entryX=0.391;entryY=1.067;entryDx=0;entryDy=0;entryPerimeter=0;exitX=0.573;exitY=0.017;exitDx=0;exitDy=0;exitPerimeter=0;" parent="1" source="LIS-N79Wm2LR9AGl1RFl-18" target="mCOdfryTDlTn8JmJhLNw-14" edge="1">
          <mxGeometry width="50" height="50" relative="1" as="geometry">
            <mxPoint x="500" y="650" as="sourcePoint" />
            <mxPoint x="560" y="560" as="targetPoint" />
          </mxGeometry>
        </mxCell>
        <mxCell id="LIS-N79Wm2LR9AGl1RFl-18" value="Verification Date" style="ellipse;whiteSpace=wrap;html=1;align=center;" parent="1" vertex="1">
          <mxGeometry x="660" y="590" width="110" height="50" as="geometry" />
        </mxCell>
        <mxCell id="LIS-N79Wm2LR9AGl1RFl-19" value="" style="endArrow=classic;html=1;rounded=0;exitX=1;exitY=0.5;exitDx=0;exitDy=0;entryX=0;entryY=0.5;entryDx=0;entryDy=0;" parent="1" source="QwMvrHdCOfPr3-RVvYp1-2" target="C-vyLk0tnHw3VtMMgP7b-23" edge="1">
          <mxGeometry width="50" height="50" relative="1" as="geometry">
            <mxPoint x="300" y="210" as="sourcePoint" />
            <mxPoint x="350" y="160" as="targetPoint" />
          </mxGeometry>
        </mxCell>
        <mxCell id="LIS-N79Wm2LR9AGl1RFl-21" value="" style="endArrow=none;html=1;rounded=0;exitX=0.5;exitY=0;exitDx=0;exitDy=0;entryX=0.25;entryY=1;entryDx=0;entryDy=0;" parent="1" source="mCOdfryTDlTn8JmJhLNw-64" target="LIS-N79Wm2LR9AGl1RFl-12" edge="1">
          <mxGeometry width="50" height="50" relative="1" as="geometry">
            <mxPoint x="230" y="510" as="sourcePoint" />
            <mxPoint x="230" y="420" as="targetPoint" />
          </mxGeometry>
        </mxCell>
        <mxCell id="LIS-N79Wm2LR9AGl1RFl-12" value="URL" style="whiteSpace=wrap;html=1;align=center;strokeWidth=1;" parent="1" vertex="1">
          <mxGeometry x="250" y="550" width="130" height="60" as="geometry" />
        </mxCell>
        <mxCell id="LIS-N79Wm2LR9AGl1RFl-23" value="Follow" style="rounded=0;whiteSpace=wrap;html=1;fontSize=13;strokeWidth=4;" parent="1" vertex="1">
          <mxGeometry x="190" y="70" width="120" height="60" as="geometry" />
        </mxCell>
        <mxCell id="LIS-N79Wm2LR9AGl1RFl-27" value="Subscribe" style="shape=rhombus;perimeter=rhombusPerimeter;whiteSpace=wrap;html=1;align=center;" parent="1" vertex="1">
          <mxGeometry x="150" y="155" width="120" height="60" as="geometry" />
        </mxCell>
        <mxCell id="LIS-N79Wm2LR9AGl1RFl-29" value="" style="endArrow=none;html=1;rounded=0;entryX=0.592;entryY=0.999;entryDx=0;entryDy=0;entryPerimeter=0;exitX=0.5;exitY=0;exitDx=0;exitDy=0;" parent="1" source="LIS-N79Wm2LR9AGl1RFl-27" target="LIS-N79Wm2LR9AGl1RFl-23" edge="1">
          <mxGeometry width="50" height="50" relative="1" as="geometry">
            <mxPoint x="260" y="430" as="sourcePoint" />
            <mxPoint x="310" y="380" as="targetPoint" />
          </mxGeometry>
        </mxCell>
        <mxCell id="LIS-N79Wm2LR9AGl1RFl-30" value="" style="endArrow=none;html=1;rounded=0;entryX=0.5;entryY=1;entryDx=0;entryDy=0;exitX=1;exitY=0.5;exitDx=0;exitDy=0;" parent="1" source="mCOdfryTDlTn8JmJhLNw-5" target="LIS-N79Wm2LR9AGl1RFl-27" edge="1">
          <mxGeometry width="50" height="50" relative="1" as="geometry">
            <mxPoint x="260" y="430" as="sourcePoint" />
            <mxPoint x="310" y="380" as="targetPoint" />
          </mxGeometry>
        </mxCell>
        <mxCell id="LIS-N79Wm2LR9AGl1RFl-31" value="Reply" style="shape=rhombus;perimeter=rhombusPerimeter;whiteSpace=wrap;html=1;align=center;strokeWidth=1;" parent="1" vertex="1">
          <mxGeometry x="250" y="210" width="120" height="70" as="geometry" />
        </mxCell>
        <mxCell id="LIS-N79Wm2LR9AGl1RFl-33" value="Retweet" style="shape=rhombus;perimeter=rhombusPerimeter;whiteSpace=wrap;html=1;align=center;strokeWidth=1;" parent="1" vertex="1">
          <mxGeometry x="340" y="300" width="120" height="60" as="geometry" />
        </mxCell>
        <mxCell id="LIS-N79Wm2LR9AGl1RFl-35" value="Favourite lists" style="whiteSpace=wrap;html=1;align=center;strokeWidth=4;" parent="1" vertex="1">
          <mxGeometry x="950" y="215" width="120" height="60" as="geometry" />
        </mxCell>
        <mxCell id="LIS-N79Wm2LR9AGl1RFl-39" value="" style="endArrow=none;html=1;rounded=0;entryX=0.5;entryY=0;entryDx=0;entryDy=0;exitX=0.5;exitY=1;exitDx=0;exitDy=0;" parent="1" source="mCOdfryTDlTn8JmJhLNw-5" target="LIS-N79Wm2LR9AGl1RFl-13" edge="1">
          <mxGeometry width="50" height="50" relative="1" as="geometry">
            <mxPoint x="260" y="400" as="sourcePoint" />
            <mxPoint x="310" y="350" as="targetPoint" />
          </mxGeometry>
        </mxCell>
        <mxCell id="LIS-N79Wm2LR9AGl1RFl-40" value="" style="endArrow=none;html=1;rounded=0;entryX=0.887;entryY=0.982;entryDx=0;entryDy=0;entryPerimeter=0;exitX=0.5;exitY=0;exitDx=0;exitDy=0;" parent="1" source="LIS-N79Wm2LR9AGl1RFl-11" target="mCOdfryTDlTn8JmJhLNw-5" edge="1">
          <mxGeometry width="50" height="50" relative="1" as="geometry">
            <mxPoint x="260" y="400" as="sourcePoint" />
            <mxPoint x="310" y="350" as="targetPoint" />
          </mxGeometry>
        </mxCell>
        <mxCell id="LIS-N79Wm2LR9AGl1RFl-44" value="&lt;span style=&quot;border-bottom: 1px dotted&quot;&gt;userid&lt;/span&gt;" style="ellipse;whiteSpace=wrap;html=1;align=center;strokeWidth=1;spacing=12;spacingTop=0;spacingLeft=0;" parent="1" vertex="1">
          <mxGeometry x="1090" y="200" width="100" height="40" as="geometry" />
        </mxCell>
        <mxCell id="LIS-N79Wm2LR9AGl1RFl-45" value="create" style="shape=rhombus;perimeter=rhombusPerimeter;whiteSpace=wrap;html=1;align=center;strokeWidth=4;" parent="1" vertex="1">
          <mxGeometry x="820" y="170" width="120" height="60" as="geometry" />
        </mxCell>
        <mxCell id="LIS-N79Wm2LR9AGl1RFl-47" value="" style="endArrow=none;html=1;rounded=0;entryX=0;entryY=0.5;entryDx=0;entryDy=0;exitX=1;exitY=1;exitDx=0;exitDy=0;strokeWidth=4;" parent="1" source="LIS-N79Wm2LR9AGl1RFl-45" target="LIS-N79Wm2LR9AGl1RFl-35" edge="1">
          <mxGeometry width="50" height="50" relative="1" as="geometry">
            <mxPoint x="620" y="320" as="sourcePoint" />
            <mxPoint x="670" y="270" as="targetPoint" />
          </mxGeometry>
        </mxCell>
        <mxCell id="LIS-N79Wm2LR9AGl1RFl-48" value="" style="endArrow=classic;html=1;rounded=0;exitX=0;exitY=0.5;exitDx=0;exitDy=0;entryX=-0.09;entryY=0.948;entryDx=0;entryDy=0;entryPerimeter=0;" parent="1" source="mCOdfryTDlTn8JmJhLNw-15" target="mCOdfryTDlTn8JmJhLNw-12" edge="1">
          <mxGeometry width="50" height="50" relative="1" as="geometry">
            <mxPoint x="280" y="510" as="sourcePoint" />
            <mxPoint x="500" y="350" as="targetPoint" />
          </mxGeometry>
        </mxCell>
        <mxCell id="LIS-N79Wm2LR9AGl1RFl-50" value="" style="endArrow=none;html=1;rounded=0;entryX=0;entryY=0.5;entryDx=0;entryDy=0;exitX=0.858;exitY=0.267;exitDx=0;exitDy=0;exitPerimeter=0;" parent="1" source="LIS-N79Wm2LR9AGl1RFl-33" target="C-vyLk0tnHw3VtMMgP7b-23" edge="1">
          <mxGeometry width="50" height="50" relative="1" as="geometry">
            <mxPoint x="230" y="370" as="sourcePoint" />
            <mxPoint x="370" y="220" as="targetPoint" />
          </mxGeometry>
        </mxCell>
        <mxCell id="LIS-N79Wm2LR9AGl1RFl-51" value="" style="endArrow=none;html=1;rounded=0;exitX=1;exitY=0.75;exitDx=0;exitDy=0;entryX=0;entryY=0.5;entryDx=0;entryDy=0;" parent="1" source="mCOdfryTDlTn8JmJhLNw-5" target="LIS-N79Wm2LR9AGl1RFl-33" edge="1">
          <mxGeometry width="50" height="50" relative="1" as="geometry">
            <mxPoint x="70" y="370" as="sourcePoint" />
            <mxPoint x="120" y="320" as="targetPoint" />
          </mxGeometry>
        </mxCell>
        <mxCell id="LIS-N79Wm2LR9AGl1RFl-52" value="" style="endArrow=none;html=1;rounded=0;entryX=0.5;entryY=1;entryDx=0;entryDy=0;exitX=0.5;exitY=0;exitDx=0;exitDy=0;" parent="1" source="mCOdfryTDlTn8JmJhLNw-53" target="LIS-N79Wm2LR9AGl1RFl-33" edge="1">
          <mxGeometry width="50" height="50" relative="1" as="geometry">
            <mxPoint x="280" y="510" as="sourcePoint" />
            <mxPoint x="330" y="460" as="targetPoint" />
          </mxGeometry>
        </mxCell>
        <mxCell id="LIS-N79Wm2LR9AGl1RFl-53" value="" style="endArrow=none;html=1;rounded=0;exitX=1;exitY=0.5;exitDx=0;exitDy=0;entryX=0;entryY=0.5;entryDx=0;entryDy=0;" parent="1" source="LIS-N79Wm2LR9AGl1RFl-35" target="LIS-N79Wm2LR9AGl1RFl-55" edge="1">
          <mxGeometry width="50" height="50" relative="1" as="geometry">
            <mxPoint x="780" y="345" as="sourcePoint" />
            <mxPoint x="840" y="320" as="targetPoint" />
          </mxGeometry>
        </mxCell>
        <mxCell id="LIS-N79Wm2LR9AGl1RFl-55" value="list_id" style="ellipse;whiteSpace=wrap;html=1;align=center;fontStyle=4;" parent="1" vertex="1">
          <mxGeometry x="1080" y="260" width="100" height="40" as="geometry" />
        </mxCell>
        <mxCell id="LIS-N79Wm2LR9AGl1RFl-56" value="Name" style="ellipse;whiteSpace=wrap;html=1;align=center;" parent="1" vertex="1">
          <mxGeometry x="1080" y="320" width="100" height="40" as="geometry" />
        </mxCell>
        <mxCell id="LIS-N79Wm2LR9AGl1RFl-57" value="" style="endArrow=none;html=1;rounded=0;entryX=0;entryY=0.5;entryDx=0;entryDy=0;exitX=1;exitY=1;exitDx=0;exitDy=0;" parent="1" source="LIS-N79Wm2LR9AGl1RFl-35" target="LIS-N79Wm2LR9AGl1RFl-56" edge="1">
          <mxGeometry width="50" height="50" relative="1" as="geometry">
            <mxPoint x="520" y="360" as="sourcePoint" />
            <mxPoint x="570" y="310" as="targetPoint" />
          </mxGeometry>
        </mxCell>
        <mxCell id="LIS-N79Wm2LR9AGl1RFl-59" value="Relationship" style="shape=rhombus;perimeter=rhombusPerimeter;whiteSpace=wrap;html=1;align=center;strokeWidth=4;" parent="1" vertex="1">
          <mxGeometry x="400" y="80" width="100" height="60" as="geometry" />
        </mxCell>
        <mxCell id="LIS-N79Wm2LR9AGl1RFl-61" value="" style="endArrow=none;html=1;rounded=0;exitX=1;exitY=0.5;exitDx=0;exitDy=0;entryX=0;entryY=0.5;entryDx=0;entryDy=0;strokeWidth=4;" parent="1" source="LIS-N79Wm2LR9AGl1RFl-23" target="LIS-N79Wm2LR9AGl1RFl-59" edge="1">
          <mxGeometry width="50" height="50" relative="1" as="geometry">
            <mxPoint x="370" y="380" as="sourcePoint" />
            <mxPoint x="420" y="330" as="targetPoint" />
          </mxGeometry>
        </mxCell>
        <mxCell id="LIS-N79Wm2LR9AGl1RFl-62" value="" style="endArrow=classic;html=1;rounded=0;exitX=1;exitY=0.5;exitDx=0;exitDy=0;entryX=-0.005;entryY=0.37;entryDx=0;entryDy=0;entryPerimeter=0;" parent="1" source="LIS-N79Wm2LR9AGl1RFl-59" target="C-vyLk0tnHw3VtMMgP7b-23" edge="1">
          <mxGeometry width="50" height="50" relative="1" as="geometry">
            <mxPoint x="310" y="240" as="sourcePoint" />
            <mxPoint x="420" y="330" as="targetPoint" />
          </mxGeometry>
        </mxCell>
        <mxCell id="LIS-N79Wm2LR9AGl1RFl-64" value="" style="endArrow=none;html=1;rounded=0;exitX=1;exitY=0.5;exitDx=0;exitDy=0;entryX=0.5;entryY=0;entryDx=0;entryDy=0;" parent="1" target="LIS-N79Wm2LR9AGl1RFl-58" edge="1">
          <mxGeometry width="50" height="50" relative="1" as="geometry">
            <mxPoint x="80" y="42.5" as="sourcePoint" />
            <mxPoint x="250" y="70" as="targetPoint" />
          </mxGeometry>
        </mxCell>
        <mxCell id="LIS-N79Wm2LR9AGl1RFl-58" value="&lt;span style=&quot;border-bottom: 1px dotted&quot;&gt;Follower_id&lt;/span&gt;" style="ellipse;whiteSpace=wrap;html=1;align=center;" parent="1" vertex="1">
          <mxGeometry x="70" y="20" width="100" height="40" as="geometry" />
        </mxCell>
        <mxCell id="w8yeDJWECX7cOvyN0gew-1" value="Date and Time" style="ellipse;whiteSpace=wrap;html=1;align=center;" vertex="1" parent="1">
          <mxGeometry x="70" y="115" width="100" height="40" as="geometry" />
        </mxCell>
        <mxCell id="w8yeDJWECX7cOvyN0gew-2" value="Tid" style="ellipse;whiteSpace=wrap;html=1;align=center;fontStyle=4;" vertex="1" parent="1">
          <mxGeometry x="10" y="400" width="110" height="40" as="geometry" />
        </mxCell>
        <mxCell id="w8yeDJWECX7cOvyN0gew-3" value="" style="endArrow=none;html=1;rounded=0;entryX=0.25;entryY=1;entryDx=0;entryDy=0;exitX=0.5;exitY=0;exitDx=0;exitDy=0;" edge="1" parent="1" source="w8yeDJWECX7cOvyN0gew-2" target="mCOdfryTDlTn8JmJhLNw-5">
          <mxGeometry width="50" height="50" relative="1" as="geometry">
            <mxPoint x="290" y="450" as="sourcePoint" />
            <mxPoint x="340" y="400" as="targetPoint" />
          </mxGeometry>
        </mxCell>
      </root>
    </mxGraphModel>
  </diagram>
</mxfile>
